#!OML:ASF F:\VICON\USERDATA\INSTALL\rory3\rory3.ASF
:FULLY-SPECIFIED
:DEGREES
64
root -0.1788652133144919 18.138629801344944 26.01154384549845 -4.234722047604021 0.9102344210811775 -4.199708627038587
lfemur -8.332159034962428 -1.6227069966684338 -15.65976202434042
ltibia 53.77757770127812
lfoot 2.619740537770526 -11.336672440826462
ltoes -12.577175100278636
rfemur -10.753099905168048 5.154542391770059 30.04131832566579
rtibia 27.892851306850535
rfoot -6.563556604410102 -4.081344128467251
rtoes 8.466522315798779
lowerback 8.474116383639071 -0.5629525329863405 2.1812163920676526
upperback 0.2164498696804582 -0.4347785051748845 2.365161695250924
thorax -5.1525053724474095 -0.2536550952704206 1.6258200437692374
lowerneck -15.606759005998779 -2.6792830750329983 -2.7632664086228242
upperneck 20.77776172437703 -3.287552329649198 1.4934727286584244
head 9.250381192486179 -1.598095432957526 0.6534109058778104
lclavicle -4.485322197095773e-16 -7.7309248155588215e-16
lhumerus -33.63366938045616 4.170723294816229 79.22315032787337
lradius 30.0560123893762
lwrist 7.847138867918657
lhand -27.81826497484691 21.176355800384915
lfingers 7.12502
lthumb -1.2336952237519654 50.84074592132471
rclavicle -4.5404822649295e-16 -7.77008858596332e-16
rhumerus -34.056950010504124 -24.674695805805126 -73.71349500371811
rradius 19.89420339008209
rwrist 11.009426936544322
rhand -17.005269471116943 22.13269427648094
rfingers 7.12502
rthumb 9.17506929363072 -7.811803921432396
65
root -0.1748596427574446 18.141570956119807 26.42846902754637 -4.018890362345558 -0.26097516376431495 -4.239181404627783
lfemur -12.668998591085606 -0.24354972727551782 -15.574074250013414
ltibia 56.21530981159088
lfoot -2.2294888373975468 -9.938732187194958
ltoes -17.080976432926505
rfemur -8.462087479309993 5.343818647902086 30.655686434480145
rtibia 28.714666952479867
rfoot -7.018951643113649 -4.061590653283831
rtoes 8.783850489097235
lowerback 8.3251364383918 0.021059328313830117 2.5846934920282862
upperback 0.25894500574721346 0.3968461603585556 2.1546927950667256
thorax -5.119016762028557 0.14918734150854834 0.8847859319914666
lowerneck -15.476605923098973 -2.768397851159732 -2.7265129915580792
upperneck 20.75477005292608 -3.4445101381972014 1.6126435599752662
head 9.230882035862335 -1.66227064337308 0.6998911850982737
lclavicle -4.487708596375745e-16 -7.731720501735388e-16
lhumerus -33.87699791328157 4.389680550873693 79.37919971518822
lradius 29.525701906014202
lwrist 9.389593063531052
lhand -28.141348418868446 20.019790344410218
lfingers 7.12502
lthumb -1.6458705626354801 49.30145754462509
rclavicle -4.539669557625729e-16 -7.769461372050898e-16
rhumerus -32.63504775410699 -22.691878638128596 -75.26329448645737
rradius 20.499894950223617
rwrist 10.121320705551852
rhand -16.91139279193794 22.01140060879899
rfingers 7.12502
rthumb 9.215408778323972 -7.837832810619762
66
root -0.1664263652628687 18.106671671781985 26.922153605221624 -3.630350693987457 -1.1905661580650213 -5.163263993343609
lfemur -16.947570633443164 0.6732015974172652 -14.637535844225205
ltibia 56.56979845227545
lfoot -4.280156067432365 -7.895153213189307
ltoes -15.36178064127341
rfemur -6.092052855273284 5.443090982199263 31.987892647314773
rtibia 29.47552943239137
rfoot -7.478916965523668 -4.224689741755836
rtoes 9.129981148174569
lowerback 8.550899465115679 0.5671394622430977 3.903167339504547
upperback 0.2613136110959483 1.2613734181159957 1.974103857887942
thorax -5.14437655713846 0.5598327886540715 0.026306119571215314
lowerneck -15.439401533233944 -2.8583002444102292 -2.6763422951502585
upperneck 20.723415830606175 -3.5948619150141736 1.6971041371731084
head 9.213305441350942 -1.7218045319289348 0.7315267621682091
lclavicle -4.49769749205293e-16 -7.738442941351585e-16
lhumerus -34.14597179139451 4.602115957890626 79.52739717470283
lradius 29.134035879175432
lwrist 10.61264455166773
lhand -28.544679966269033 18.969907926460657
lfingers 7.12502
lthumb -2.033571061997964 48.27879110096889
rclavicle -4.544157044646227e-16 -7.77293130609734e-16
rhumerus -31.02742274256327 -20.330259084930898 -76.8011969910067
rradius 21.43130874865372
rwrist 8.706002400961681
rhand -17.004837627779402 21.639172958499447
rfingers 7.12502
rthumb 9.075071361939262 -8.167397472237166
67
root -0.14421032791339128 18.05172513419543 27.513629023996998 -3.044265909271214 -2.0006644893412857 -5.8134215666128295
lfemur -20.78638740516955 1.0694518472170347 -13.816434444951284
ltibia 54.858467660599985
lfoot -4.724810576096253 -6.503493090543579
ltoes -13.600919240966354
rfemur -3.7052080387006106 5.321325899158939 32.8829984800687
rtibia 29.832475634665556
rfoot -7.567817234170734 -4.468452964588457
rtoes 9.74878577610086
lowerback 8.857993843796478 0.9893453704609021 5.067576859202077
upperback 0.2608378140012448 1.9902142293187775 1.8417776445728704
thorax -5.198219819385672 0.8971853555649008 -0.8497823050044928
lowerneck -15.486050530162775 -2.923288984782029 -2.5890551005571445
upperneck 20.64942348404253 -3.6918827223308983 1.6876699825614323
head 9.184370662033494 -1.7573567239332708 0.7251284888436769
lclavicle -4.507521252053565e-16 -7.746233307291618e-16
lhumerus -34.264759054213776 4.94392080260039 79.69674024708011
lradius 28.833908257343914
lwrist 11.023822208121123
lhand -28.79177842407049 18.656035967787123
lfingers 7.12502
lthumb -2.2688273075335452 47.99329450807939
rclavicle -4.547825114085934e-16 -7.77576875862665e-16
rhumerus -29.48026521043718 -17.956543474266393 -78.18187339061582
rradius 22.749605009690935
rwrist 6.82724191402203
rhand -17.229457882093186 20.981351905506965
rfingers 7.12502
rthumb 8.818721003516313 -8.758975765217734
68
root -0.1127759059831796 17.98003975583554 28.221809209412037 -2.5349207412669794 -2.4101240651189655 -5.944741789088682
lfemur -23.870582792124587 1.1248678556222282 -13.509265531678544
ltibia 51.12492006532691
lfoot -4.956523076192036 -4.442767344284604
ltoes -12.872126865981166
rfemur -1.6987951486341029 5.360138845738799 33.16649693473478
rtibia 29.923777281702954
rfoot -7.7083087426016235 -4.726965793387814
rtoes 10.219776927068033
lowerback 9.048898881229546 1.2903214095754831 5.636630818536516
upperback 0.27905691961925966 2.484422273370778 1.7545430356309937
thorax -5.180871298553185 1.1201586981046763 -1.5843430196700707
lowerneck -15.568682103270717 -2.9597427860519923 -2.472609886836758
upperneck 20.485498268300173 -3.736660814547774 1.598043701990656
head 9.128753752753424 -1.7700519386047957 0.6822974929463503
lclavicle -4.495029801114461e-16 -7.740924506772825e-16
lhumerus -34.5803608210275 5.195213320123097 79.7600169303015
lradius 28.766676962188544
lwrist 10.831459373542117
lhand -28.918006612383426 18.71546402521292
lfingers 7.12502
lthumb -2.3453467774993255 48.09907935965937
rclavicle -4.553412291831726e-16 -7.780092401278483e-16
rhumerus -28.04045348116355 -15.770528128501061 -79.2872623158948
rradius 24.31882356262472
rwrist 4.826339358213476
rhand -17.51253457188507 20.371533605088302
rfingers 7.12502
rthumb 8.534391820961487 -9.229071114294973
69
root -0.07298821722597548 17.95101825110124 28.87005018592692 -1.8165060947760583 -2.566167386290615 -6.126607284597947
lfemur -26.14161617249227 0.8388254372851005 -13.341366048621573
ltibia 45.35693920970449
lfoot -5.036301510871574 -4.119075122054952
ltoes -12.448492773907688
rfemur 0.36956195397458913 5.588340752155849 33.36909762452209
rtibia 29.32363443673536
rfoot -8.264033071597554 -5.276533245824144
rtoes 10.141173547423104
lowerback 8.800588575831851 1.518425199448286 5.926507681261571
upperback 0.29100003527932844 2.8202770431493143 1.685864031898383
thorax -5.084064122774309 1.2604995343135235 -2.0965115840208135
lowerneck -15.678247601686408 -2.979133523622543 -2.3389779325884827
upperneck 20.25920880296018 -3.7572154791209638 1.4554495227242858
head 9.05784941517741 -1.7738835576947816 0.6073473294720851
lclavicle -4.509220930932835e-16 -7.755091955684387e-16
lhumerus -35.03875307963192 5.345282646454503 79.73973675399488
lradius 28.926933346363356
lwrist 10.42019408339781
lhand -28.937214066944183 18.990463516848173
lfingers 7.12502
lthumb -2.2905954983262244 48.45330446480294
rclavicle -4.553126959988004e-16 -7.779872640288328e-16
rhumerus -26.83954761597994 -14.138946548563958 -80.15622595655886
rradius 26.020250132485078
rwrist 2.819111185600455
rhand -17.82000810722413 20.197511873527993
rfingers 7.12502
rthumb 8.246296449510407 -9.309757779910475
70
root -0.04016504407263699 17.88915788992387 29.372182895450976 -0.9152618272668416 -2.980643627635481 -7.051713916374305
lfemur -27.46929041115076 -0.1662474696405265 -11.886081468878857
ltibia 37.2018923376589
lfoot -4.339188924100223 -3.194692125526977
ltoes -12.032026183849773
rfemur 2.903875360835004 6.101584826646092 34.24326174756938
rtibia 27.469482217233978
rfoot -8.348563016041261 -5.909051006982561
rtoes 9.636169371824948
lowerback 8.46883151347422 1.7643129303536047 6.731711483806443
upperback 0.21938244317455952 3.214691904274142 1.6779278688023729
thorax -5.005325144470293 1.4437129471884638 -2.4502885143680597
lowerneck -15.81499223980509 -2.9979135228966984 -2.2124760043933773
upperneck 20.039628320628836 -3.7823141702239513 1.328876115025221
head 8.993848691756275 -1.7822396013780208 0.522766953002776
lclavicle -4.488934271782361e-16 -7.744976758995454e-16
lhumerus -35.341783021401774 5.559679762948373 79.74441067129911
lradius 29.127616929111674
lwrist 9.97493628714536
lhand -28.8457758343026 19.369666567731294
lfingers 7.12502
lthumb -2.145527898864518 48.93068643296713
rclavicle -4.550848496984766e-16 -7.77811013973886e-16
rhumerus -25.75158904680201 -13.004583648721319 -80.66364297349367
rradius 27.47233180701656
rwrist 1.0836065380130435
rhand -18.136075120135505 20.51668839445153
rfingers 7.12502
rthumb 7.985960137245485 -8.963740626841957
71
root 0.020233659863076903 17.823221871824934 29.870686221428677 -0.224773442580668 -3.621858037621519 -7.283998700333246
lfemur -27.914795094428328 -2.07777637525055 -10.81077832552014
ltibia 27.35614030014798
lfoot -5.013910163391035 -2.650181558294213
ltoes -13.09235604333574
rfemur 5.306963116931875 6.497186147388968 34.51808718201083
rtibia 25.361913052203732
rfoot -7.834151914876116 -6.271313175591388
rtoes 9.045801529469598
lowerback 8.239769727528916 2.0260893630452492 6.82706538397374
upperback 0.10392870172421838 3.53572885915898 1.6319575238129425
thorax -4.976573862498867 1.598984085503015 -2.6912921372570766
lowerneck -15.951761621971123 -3.0215382073419312 -2.106741243785546
upperneck 19.863821864187408 -3.8182476413737163 1.2572202343746945
head 8.94622211894564 -1.7973720047334212 0.4469436848001924
lclavicle -4.503922103203425e-16 -7.753954012951245e-16
lhumerus -35.513059746612385 5.899509247761164 79.67937175050044
lradius 29.319249131998646
lwrist 9.385149716234434
lhand -28.623407017790775 19.773235274775192
lfingers 7.12502
lthumb -1.92989059694842 49.3729375127295
rclavicle -4.552123556083137e-16 -7.779098172853495e-16
rhumerus -24.744236649970443 -12.191595844451399 -80.89068755127394
rradius 28.543779632199882
rwrist -0.12383149805308591
rhand -18.483272220568065 21.140376131968665
rfingers 7.12502
rthumb 7.767132311062374 -8.250231119795163
